<?xml version="1.0" standalone="no"?><!DOCTYPE svg PUBLIC "-//W3C//DTD SVG 1.1//EN" "http://www.w3.org/Graphics/SVG/1.1/DTD/svg11.dtd"><svg t="1614568374926" class="icon" viewBox="0 0 1024 1024" version="1.1" xmlns="http://www.w3.org/2000/svg" p-id="6930" xmlns:xlink="http://www.w3.org/1999/xlink" width="128" height="128"><defs><style type="text/css"></style></defs><path d="M488.859546 658.286689c-1.000832-0.629295-114.835855-186.360069-115.219473-188.752399-23.522562-49.896588-42.518224-100.90879-2.947117-123.580545L206.414614 77.201276c-42.536348 30.894884-162.982497 198.479797 62.407989 578.232942 237.434698 400.214814 463.397088 383.562145 508.704349 356.469212L617.415049 749.536548C579.593887 771.145045 547.710254 735.578271 488.859546 658.286689zM887.387848 910.03207l0.050344-0.170162c0 0-125.016345-204.398195-125.079778-204.4868-9.885477-16.206624-31.223125-21.256091-47.831492-11.855927l-76.579723 43.927846 160.520693 263.078741c0 0 76.611943-43.745602 76.561599-43.834207l0.170162-0.063433C892.745418 946.561414 896.807143 925.589261 887.387848 910.03207zM468.214627 290.232398l0.038261-0.14499c17.55382-10.104975 21.709184-31.00262 12.29593-46.447041l0.056385-0.207416c0 0-128.598799-210.341765-128.662232-210.392109-9.903601-16.275092-31.273469-21.274215-47.819409-11.88714l-76.592813 43.960066L391.628862 334.015254C391.628862 334.015254 468.183414 290.339127 468.214627 290.232398z" p-id="6931"></path></svg>