<?xml version="1.0" standalone="no"?><!DOCTYPE svg PUBLIC "-//W3C//DTD SVG 1.1//EN" "http://www.w3.org/Graphics/SVG/1.1/DTD/svg11.dtd"><svg class="icon" width="128px" height="128.00px" viewBox="0 0 1024 1024" version="1.1" xmlns="http://www.w3.org/2000/svg"><path d="M63.520197 64.485687 63.520197 847.402933l727.208457 0L790.728654 64.485687 63.520197 64.485687zM735.893768 792.514835 117.451504 792.514835 117.451504 118.357642 735.893768 118.357642 735.893768 792.514835zM192.604134 400.401296l458.300984 0 0 55.113225-458.300984 0 0-55.113225ZM192.604134 512.239454l458.300984 0 0 55.113225-458.300984 0 0-55.113225ZM192.604134 624.13287l458.300984 0 0 55.112202-458.300984 0 0-55.112202ZM192.604134 288.11493l229.147934 0 0 55.113225-229.147934 0 0-55.113225ZM958.486402 959.245184 371.311259 959.245184 371.311259 905.370159 904.617517 905.370159 904.617517 230.196823 848.166831 230.196823 848.166831 176.322821 958.486402 176.322821Z" /></svg>