<?xml version="1.0" standalone="no"?><!DOCTYPE svg PUBLIC "-//W3C//DTD SVG 1.1//EN" "http://www.w3.org/Graphics/SVG/1.1/DTD/svg11.dtd"><svg t="1614568363281" class="icon" viewBox="0 0 1024 1024" version="1.1" xmlns="http://www.w3.org/2000/svg" p-id="6183" xmlns:xlink="http://www.w3.org/1999/xlink" width="128" height="128"><defs><style type="text/css"></style></defs><path d="M395.843 630.6c90.178 89.518 194.56 175.032 235.54 133.744 58.675-59.105 94.792-110.53 224.988-6.692 130.202 103.885 30.766 173.794-26.066 231.071-65.582 66.069-311.198 4.629-554.665-236.984C32.205 510.075-31.12 264.929 34.51 198.825c56.842-57.277 126.013-157.21 230.81-27.766 104.842 129.377 53.698 165.888-4.977 225.004-40.96 41.282 45.312 145.003 135.5 234.537z m130.77-427.065s-27.203-4.254-46.255 14.813c-19.61 19.61-20.464 53.386 0.2 74.03 12.211 12.21 29.43 14.812 29.43 14.812 33.561 6.292 84.147 16.952 137.974 70.768 53.816 53.817 64.476 104.397 70.768 137.974 0 0 2.601 17.219 14.812 29.43 20.644 20.644 54.426 19.804 74.03 0.194 19.052-19.046 14.818-46.248 14.818-46.248-10.665-67.979-43.618-138.998-100.194-195.58-56.606-56.575-127.62-89.517-195.584-100.193z m255.17 40.602c98.668 98.662 140.728 210.642 127.037 301.379 0 0-4.776 28.733 13.988 47.498 21.125 21.125 54.605 19.906 74.373 0.143 12.703-12.697 15.473-33.377 15.473-33.377 11.32-78.418-2.918-236.165-156.651-389.878C702.285 16.195 544.548 1.956 466.135 13.261c0 0-20.664 2.75-33.382 15.467-19.774 19.774-20.977 53.253 0.148 74.379 18.77 18.77 47.503 13.987 47.503 13.987 90.742-13.685 202.717 28.38 301.379 127.043z" p-id="6184"></path></svg>