<?xml version="1.0" standalone="no"?>
<!DOCTYPE svg PUBLIC "-//W3C//DTD SVG 1.1//EN" "http://www.w3.org/Graphics/SVG/1.1/DTD/svg11.dtd" >
<!--
2013-9-30: Created.
-->
<svg>
<metadata>
Created by iconfont
</metadata>
<defs>

<font id="iconfont" horiz-adv-x="1024" >
  <font-face
    font-family="iconfont"
    font-weight="500"
    font-stretch="normal"
    units-per-em="1024"
    ascent="896"
    descent="-128"
  />
    <missing-glyph />
    
    <glyph glyph-name="x" unicode="x" horiz-adv-x="1001"
d="M281 543q-27 -1 -53 -1h-83q-18 0 -36.5 -6t-32.5 -18.5t-23 -32t-9 -45.5v-76h912v41q0 16 -0.5 30t-0.5 18q0 13 -5 29t-17 29.5t-31.5 22.5t-49.5 9h-133v-97h-438v97zM955 310v-52q0 -23 0.5 -52t0.5 -58t-10.5 -47.5t-26 -30t-33 -16t-31.5 -4.5q-14 -1 -29.5 -0.5
t-29.5 0.5h-32l-45 128h-439l-44 -128h-29h-34q-20 0 -45 1q-25 0 -41 9.5t-25.5 23t-13.5 29.5t-4 30v167h911zM163 247q-12 0 -21 -8.5t-9 -21.5t9 -21.5t21 -8.5q13 0 22 8.5t9 21.5t-9 21.5t-22 8.5zM316 123q-8 -26 -14 -48q-5 -19 -10.5 -37t-7.5 -25t-3 -15t1 -14.5
t9.5 -10.5t21.5 -4h37h67h81h80h64h36q23 0 34 12t2 38q-5 13 -9.5 30.5t-9.5 34.5q-5 19 -11 39h-368zM336 498v228q0 11 2.5 23t10 21.5t20.5 15.5t34 6h188q31 0 51.5 -14.5t20.5 -52.5v-227h-327z" />
    

    
    <glyph glyph-name="shuizhicur" unicode="&#58972;" d="M828.808 387.512c-68.392-14.678-135.563 29.696-150.028 99.129-14.45 69.433 57.359 142.234 70.767 281.36 13.327 0.049 162.443-158.766 176.909-228.199 14.466-69.433-29.257-137.613-97.648-152.289zM391.058-192c-163.631 0-296.281 134.667-296.281 300.788s199.202 297.566 296.281 609.615c30.543-6.443 296.297-443.494 296.297-609.615s-132.65-300.788-296.297-300.788z"  horiz-adv-x="1024" />

    
    <glyph glyph-name="shuibiao" unicode="&#58921;" d="M512 800c-282.769 0-512-229.23-512-512 0-282.769 229.23-512 512-512 282.77 0 512.001 229.231 512.001 512 0 282.77-229.231 512-512.001 512zM859.568-59.566c-45.148-45.148-97.717-80.594-156.246-105.348-60.586-25.626-124.955-38.619-191.321-38.619-66.365 0-130.736 12.993-191.32 38.619-58.529 24.755-111.097 60.2-156.247 105.348-45.148 45.148-80.593 97.717-105.348 156.246-25.626 60.585-38.619 124.954-38.619 191.32s12.993 130.736 38.619 191.321c24.756 58.529 60.2 111.097 105.348 156.246s97.717 80.593 156.247 105.348c60.584 25.626 124.954 38.619 191.319 38.619 66.365 0 130.736-12.993 191.321-38.619 58.529-24.756 111.097-60.2 156.246-105.348 45.148-45.148 80.593-97.718 105.348-156.246 25.626-60.586 38.619-124.955 38.619-191.321s-12.993-130.736-38.619-191.32c-24.755-58.529-60.199-111.097-105.347-156.246zM392.377 346.381c17.066 0 23.76 14.391 23.76 29.95s-6.693 29.867-23.76 29.867c-16.565 0-22.839-14.306-22.839-29.867 0-15.561 6.275-29.95 22.839-29.95zM392.796 394.654c9.369 0 9.622-10.709 9.622-18.322s-0.251-18.406-9.622-18.406c-9.036 0-9.537 10.792-9.537 18.406 0 7.613 0.502 18.322 9.537 18.322zM471.436 346.381c17.066 0 23.761 14.391 23.761 29.95s-6.692 29.867-23.761 29.867c-16.565 0-22.838-14.306-22.838-29.867 0-15.561 6.274-29.95 22.838-29.95zM471.853 394.654c9.369 0 9.622-10.709 9.622-18.322s-0.25-18.406-9.622-18.406c-9.036 0-9.537 10.792-9.537 18.406 0.001 7.613 0.502 18.322 9.537 18.322zM550.495 346.381c17.066 0 23.761 14.391 23.761 29.95s-6.693 29.867-23.761 29.867c-16.565 0-22.838-14.306-22.838-29.867 0-15.561 6.274-29.95 22.838-29.95zM550.913 394.654c9.37 0 9.622-10.709 9.622-18.322s-0.25-18.406-9.622-18.406c-9.036 0-9.537 10.792-9.537 18.406 0 7.613 0.501 18.322 9.537 18.322zM629.553 346.381c17.066 0 23.761 14.391 23.761 29.95s-6.692 29.867-23.761 29.867c-16.565 0-22.838-14.306-22.838-29.867-0.001-15.561 6.274-29.95 22.838-29.95zM629.971 394.654c9.369 0 9.622-10.709 9.622-18.322s-0.25-18.406-9.622-18.406c-9.036 0-9.537 10.792-9.537 18.406 0 7.613 0.502 18.322 9.537 18.322zM511.384 582.848c-163.276 0-295.638-132.363-295.638-295.64s132.363-295.64 295.638-295.64c163.277 0 295.64 132.363 295.64 295.64s-132.363 295.64-295.64 295.64zM341.913 403.051c0 16.492 13.369 29.862 29.862 29.862h279.215c16.493 0 29.862-13.37 29.862-29.862v-49.273c0-16.492-13.369-29.862-29.862-29.862h-279.216c-16.493 0-29.862 13.37-29.862 29.862v49.273zM374.395 121.758c-40.981 0-74.203 33.223-74.203 74.203s33.221 74.203 74.203 74.203c40.981 0 74.203-33.223 74.203-74.203 0-40.981-33.223-74.203-74.203-74.203zM527.656 26.88c-40.981 0-74.203 33.223-74.203 74.203s33.221 74.203 74.203 74.203c40.981 0 74.203-33.223 74.203-74.203 0-40.981-33.223-74.203-74.203-74.203zM674.278 121.758c-40.981 0-74.203 33.223-74.203 74.203s33.221 74.203 74.203 74.203c40.981 0 74.203-33.223 74.203-74.203 0-40.981-33.221-74.203-74.203-74.203zM381.726 198.139l-9.202 41.166-9.203-41.165c-9.047-3.646-15.433-12.502-15.433-22.853 0-13.606 11.030-24.636 24.635-24.636s24.635 11.031 24.635 24.636c0 10.351-6.387 19.205-15.433 22.852zM687.15 198.139l-9.202 41.165-9.202-41.165c-9.046-3.646-15.433-12.502-15.433-22.853 0-13.605 11.030-24.636 24.635-24.636s24.635 11.031 24.635 24.636c-0.001 10.352-6.387 19.206-15.433 22.853zM536.857 100.717l-9.202 41.165-9.203-41.165c-9.046-3.647-15.432-12.502-15.432-22.853 0-13.605 11.030-24.636 24.635-24.636s24.635 11.031 24.635 24.636c-0.001 10.351-6.388 19.205-15.433 22.853z"  horiz-adv-x="1025" />

    
    <glyph glyph-name="home" unicode="&#58892;" d="M780.1 239.138c0 20.261 16.475 36.838 36.838 36.838 20.977 0 37.555-17.293 37.555-36.838v-361.935c0-20.261-16.475-36.838-37.555-36.838l-609.877 0c-20.261 0-36.838 16.475-36.838 36.838v361.935c0 20.261 16.475 36.838 36.838 36.838 20.261 0 36.838-17.293 36.838-36.838v-325.2h118.701l0 365.722c0 11.972 10.54 21.796 22.512 21.796h253.058c11.972 0 22.512-9.721 22.512-21.796v-365.005h118.701l0.716 324.483zM407.625-85.345v0h209.569l0 342.493h-209.569v-342.493zM94.398 229.417v0c-14.224-15.042-37.555-15.042-52.597 0-14.224 14.224-14.224 37.555 0 52.597l443.9 442.98c14.224 14.224 37.555 14.224 51.778 0l0.716-0.716 443.798-443.082c14.224-14.224 14.224-37.555 0-52.597-15.042-15.042-37.555-15.042-52.597 0l-417.397 418.318-417.602-417.5zM94.398 229.417z"  horiz-adv-x="1024" />

    
    <glyph glyph-name="wangshangbanli" unicode="&#59014;" d="M350.435813 3.098827c-14.935154 0-27.085892 12.147668-27.085892 27.079752 0 14.933107 12.150738 27.082822 27.085892 27.082822l73.462129 0 0 83.170235L114.659925 140.431635c-27.840068 0-50.488905 21.618367-50.488905 48.190559L64.17102 714.288448c0 26.576285 22.648836 48.197722 50.488905 48.197722l799.602254 0c27.839045 0 50.488905-21.621437 50.488905-48.197722l0-525.665231c0-26.572192-22.649859-48.190559-50.488905-48.190559L608.839047 140.432659l0-83.170235 73.466222 0c14.930037 0 27.075659-12.149714 27.075659-27.082822 0-14.932084-12.145621-27.079752-27.075659-27.079752L350.435813 3.09985zM561.517275 57.261401l0 83.170235L471.624942 140.431635l0-83.170235L561.517275 57.261401zM917.545968 186.180586 917.545968 246.760313 111.793644 246.760313l0-60.578704L917.545968 186.181609zM917.557224 294.394193 917.557224 714.441944 111.793644 714.441944l0-420.047752L917.557224 294.394193zM547.735387 394.732435c-2.65548 0-5.265934 0.408299-7.759731 1.215688-3.108804 1.011027-5.990434 2.579755-8.570189 4.663206-2.618641 2.111081-4.796236 4.796236-6.469342 7.980765l-0.076748 0.157589-26.303063 58.376549c-6.240121-3.774977-12.009522-7.812943-17.184381-12.028964-5.975085-4.868891-11.155061-9.488095-15.396665-13.730723-5.002944-4.859681-9.442046-9.816576-13.222139-14.765285l-5.184069-6.78452-0.488117 197.778482L611.972411 490.419751l-8.824993 0.193405c-1.369184 0.029676-2.750647 0.045025-4.142343 0.045025-5.501294 0-11.263531-0.23843-17.126053-0.711198-6.357801-0.440022-13.670348-1.189082-21.766746-2.228761-6.801916-0.874927-13.81975-2.188852-20.911262-3.914146l31.036877-51.315736 0.038886-0.074701c1.681292-3.185552 2.660596-6.516414 2.911306-9.900487 0.255827-3.343141-0.12689-6.627954-1.140986-9.756201-0.99977-3.091408-2.565429-5.974062-4.656043-8.568143-2.125407-2.631944-4.812609-4.808516-7.989975-6.474458-2.988054-1.663896-6.261611-2.654456-9.667174-2.907213C549.066709 394.756995 548.393373 394.732435 547.735387 394.732435z"  horiz-adv-x="1024" />

    
    <glyph glyph-name="danxuankuanghouxuan" unicode="&#59006;" d="M511.99786666666665 878.9322666666667C238.65493333333336 878.9322666666667 17.066666666666663 657.344 17.066666666666663 383.9989333333334c0-273.34186666666665 221.58826666666667-494.9312 494.9312-494.9312C785.3450666666666-110.93226666666669 1006.9333333333335 110.65813333333335 1006.9333333333335 383.9989333333334 1006.9333333333335 657.344 785.3450666666666 878.9322666666667 511.99786666666665 878.9322666666667zM512.0021333333333-42.66773333333322c-235.64266666666666 0-426.6688 191.0272-426.6688 426.6666666666667 0 235.6448 191.02506666666667 426.6666666666667 426.6688 426.6666666666667 235.63946666666666 0 426.66453333333334-191.02186666666665 426.66453333333334-426.6666666666667C938.6666666666667 148.35946666666666 747.6415999999999-42.66773333333322 512.0021333333333-42.66773333333322z"  horiz-adv-x="1024" />

    
    <glyph glyph-name="shui" unicode="&#58956;" d="M458.73958861432106 884.0419555555555c0.8561208787753086-2.9356671582814817 1.7150043022222223-5.918283336059258 2.57112518099753-8.878806923693825 6.144742094064198-23.820885469866663 17.231512199269133-85.38014933902222-18.779435624928393-180.728589011121-15.817532059496296-41.8408582106074-51.46255663407407-95.81102091630618-85.93386737208888-145.9728254950716 0 0 0.14498828641975306-0.02209388468148148 0.14498828641975306-0.07042288197530863-21.96089288122469-32.065885161244445-33.17608118297284-71.40880232296294-29.036321258508643-112.69179997803458 9.618937173333332-95.54037697801479 97.44041351901234-165.44544364468146 196.1525814360494-156.1565269965432 98.64174503506172 9.362100780246914 179.601822899516 93.4815433108543 172.84536875235554 215.0507689402469C682.7837738350615 744.353336646163 458.73958861432106 884.0419555555555 458.73958861432106 884.0419555555555M213.36417392766424-109.83617776197525c-56.0497102797432 0-112.10494305975305 45.08169075926914-154.7798282644543 135.2409310498765-3.015756357530864 6.369818285195061-3.015756357530864 16.726124458034565 0 23.0945627654321 3.012995107397531 6.369818285195061 7.91774171085432 6.369818285195061 10.932116796049383 0 79.32378148914569-167.54708251433084 208.38959280987652-167.54708251433084 287.6954242313481 0 3.014375085195062 6.369818285195061 7.919121688651852 6.369818285195061 10.933498068385182 0 3.014375085195062-6.368438307397531 3.014375085195062-16.724744480237035 0-23.0945627654321C325.48292582716044-64.75586698050347 269.4152654797433-109.83617776197525 213.36417392766424-109.83617776197525zM511.99309622739753-110.16343703703706c-58.4316606994963 0-113.40293386492837 48.15129990889876-154.78120953679013 135.53505014518518-3.014375085195062 6.372580829866666-3.014375085195062 16.72750573037037 0 23.091801515298766 3.014375085195062 6.369818285195061 7.919121688651852 6.369818285195061 10.933498068385182 0 38.45641735332345-81.24038941455802 89.54338442050368-125.96029944667654 143.84909274074073-125.96029944667654 54.32089713777777 0 105.39267538741727 44.72129130445432 143.86428155828148 125.96029944667654 3.015756357530864 6.369818285195061 7.91774171085432 6.369818285195061 10.933498068385182 0 3.014375085195062-6.365675762725926 3.014375085195062-16.7206019577679 0-23.091801515298766C625.4112189098668-62.01213712813819 570.4399457444346-110.16343703703706 511.99309622739753-110.16343703703706zM810.638587322469-109.83617776197525c-56.05247152987653 0-112.10494305975305 45.08169075926914-154.7798282644543 135.2409310498765-3.014375085195062 6.369818285195061-3.014375085195062 16.726124458034565 0 23.0945627654321 3.014375085195062 6.369818285195061 7.916360438518517 6.369818285195061 10.932116796049383 0 79.30721139926912-167.54708251433084 208.39097408221232-167.54708251433084 287.68023411926913 0 3.0171376298666672 6.369818285195061 7.919121688651852 6.369818285195061 10.933498068385182 0 3.0171376298666672-6.368438307397531 3.0171376298666672-16.724744480237035 0-23.0945627654321C922.7435303822222-64.75586698050347 866.6924401246814-109.83617776197525 810.638587322469-109.83617776197525zM213.37107899480498 59.671699152592396c-56.0497102797432 0-112.10494305975305 45.0775482368-154.7798282644543 135.2409310498765-3.015756357530864 6.369818285195061-3.015756357530864 16.723363207901237 0 23.093181493096296 3.014375085195062 6.369818285195061 7.91774171085432 6.369818285195061 10.932116796049383 0 79.32378148914569-167.54708251433084 208.38959280987652-167.54708251433084 287.6954242313481 0 3.014375085195062 6.369818285195061 7.91774171085432 6.369818285195061 10.933498068385182 0 3.014375085195062-6.369818285195061 3.014375085195062-16.723363207901237 0-23.093181493096296C325.4912108720988 104.74924738939274 269.42078798001 59.671699152592396 213.37107899480498 59.671699152592396zM512 59.345821149866765c-58.4316606994963 0-113.40431384272593 48.14853865876544-154.78120953679013 135.53228889505183-3.014375085195062 6.373960807664197-3.014375085195062 16.728887002706173 0 23.0945627654321 3.014375085195062 6.367057035061729 7.91774171085432 6.367057035061729 10.933498068385182 0 38.45641735332345-81.24038941455802 89.54338442050368-125.96029944667654 143.84771146840495-125.96029944667654 54.32089713777777 0 105.39543793208891 44.71991132665679 143.86428155828148 125.96029944667654 3.015756357530864 6.367057035061729 7.920502960987654 6.367057035061729 10.933498068385182 0 3.012995107397531-6.367057035061729 3.014375085195062-16.7206019577679 0-23.0945627654321C625.4208839326024 107.49435980863211 570.4482307893727 59.345821149866765 512 59.345821149866765zM810.6454910950715 59.671699152592396c-56.05385280221234 0-112.10356178741729 45.0775482368-154.7798282644543 135.2409310498765-3.012995107397531 6.369818285195061-3.012995107397531 16.723363207901237 0 23.093181493096296 3.014375085195062 6.369818285195061 7.916360438518517 6.369818285195061 10.933498068385182 0 79.30583142147161-167.54708251433084 208.38959280987652-167.54708251433084 287.68161539160496 0 3.018517607664197 6.369818285195061 7.91774171085432 6.369818285195061 10.933498068385182 0 3.015756357530864-6.369818285195061 3.015756357530864-16.723363207901237 0-23.093181493096296C922.7504341548248 104.74924738939274 866.6979626249481 59.671699152592396 810.6454910950715 59.671699152592396z"  horiz-adv-x="1024" />

    
    <glyph glyph-name="shuifeijiaona" unicode="&#58903;" d="M867.205443 207.899236C833.319681 189.760111 731.28582 111.993956 694.650435 107.880265c-36.274158-4.121877-134.468574 2.297322-204.291826 8.162914-79.028914 6.597255-48.212048 35.116799-35.710316 38.168298 12.518105 3.058662 163.913187 10.344602 214.477816 15.511275 45.517683 4.669346 38.949081 44.654013-12.350283 46.273906-51.299363 1.562589-283.754622 15.568581-361.898377 10.889001-78.20106-4.676509-192.395892-97.767698-192.395892-97.767698l4.272303-14.749936 166.5482-131.785465 22.213931 1.552356c0 0 40.813544 20.924565 74.774007 27.223015 33.961486 6.288217 221.61333-12.095479 286.408055-3.681856 64.797795 8.407484 231.740992 132.898823 268.376377 160.054299 17.808598 13.251815 30.53648 32.200376 26.845415 37.301558C934.073386 229.255637 889.155361 219.664188 867.205443 207.899236L867.205443 207.899236zM527.520997 307.489442c-115.028826 0-208.612225 95.949282-208.612225 213.917044 0 49.087998 31.052227 117.412107 94.930069 208.875215 45.205575 64.72514 89.710184 115.942639 91.581812 118.089535l22.103414 25.362644 22.102391-25.363667c1.870604-2.148943 46.370097-53.364395 91.569532-118.090559 63.869656-91.464131 94.91779-159.786193 94.91779-208.874191C736.111732 403.438725 642.537544 307.489442 527.520997 307.489442zM527.52202 783.373896c-16.969487-20.862143-41.552371-52.179406-65.905012-87.079264-73.154114-104.83772-84.076884-154.573471-84.076884-174.888146 0-85.638449 67.281359-155.310252 149.980873-155.310252 82.688257 0 149.960407 69.671803 149.960407 155.310252 0 20.355607-10.958586 70.198805-84.358293 175.305655C568.831868 731.498412 544.405549 762.618177 527.52202 783.373896zM460.941626 413.343305c-7.14677 0-14.309914 2.597151-19.956517 7.847735-2.707668 2.518357-65.931618 62.848397-31.106462 164.477029 5.249561 15.316847 21.919219 23.479761 37.237089 18.228153 15.315824-5.248537 23.476691-21.918195 18.228153-37.234019-9.661034-28.196179-9.623171-54.370305 0.11154-77.796854 6.609535-15.904225 15.372106-24.662703 15.456017-24.740474 11.856026-11.025101 12.528338-29.574572 1.505283-41.430598C476.642213 416.485879 468.80164 413.343305 460.941626 413.343305z"  horiz-adv-x="1024" />

    
    <glyph glyph-name="falvfagui" unicode="&#58893;" d="M512 384M767.32206 696.25984l-121.546264-269.89701-35.357276 0L740.100068 712.237743 539.826765 712.237743 539.826765 44.411745c41.332361-1.608637 251.77528-69.850881 251.77528-69.850881l0-34.369785L225.702462-59.808922 225.702462-23.300426c0 0 210.737632 67.712171 243.074108 67.712171L468.776569 712.180438 279.518135 712.180438 409.202753 426.319851l-35.423791 0L252.271584 696.25984l-121.67213-269.89701L95.243201 426.36283l130.460284 288.953018 0 33.256428 2.201132 0 215.436654 0c0 43.606147 29.274744 79.236646 63.330374 79.236646 36.093033 0 63.35391-37.644365 63.35391-79.236646l221.639936 0 0-28.531823L924.331 426.319851 888.868323 426.319851 767.32206 696.25984 767.32206 696.25984zM411.398768 388.989641c0-86.778412-60.22464-165.755138-159.128207-165.755138-96.79965 0-159.190629 78.976726-159.190629 165.755138C93.042069 388.820796 411.398768 388.820796 411.398768 388.989641L411.398768 388.989641zM612.55723 388.989641l318.361815 0c0-86.778412-60.194964-165.755138-159.175279-165.755138C675.045423 223.234503 612.55723 302.172343 612.55723 388.989641L612.55723 388.989641zM612.55723 388.989641"  horiz-adv-x="1024" />

    
    <glyph glyph-name="jiaofeifuwu" unicode="&#59057;" d="M434.688 516.672l41.344-81.024 1.28 0 0-0.576L425.856 435.072l0-18.688 51.52 0 0-27.648L425.856 388.736l0-18.624 51.52 0 0-108.032L438.528 262.08l0-18.496 146.944 0L585.472 262.144 548.608 262.144 548.608 370.176l49.6 0L598.208 388.8 548.608 388.8 548.608 416.448l49.6 0L598.208 435.136 548.608 435.136l0 5.12-0.64 0 43.264 76.48L591.232 517.248l32.448 0L623.68 535.936 534.592 535.936l0-18.688 23.36 0L514.24 440.192 507.456 440.192 467.648 517.248l21.824 0L489.472 535.936 400.384 535.936l0-18.688 34.368 0L434.688 516.672 434.688 516.672 434.688 516.672zM694.272 651.84 694.272 820.544c-11.456 52.608-77.248 47.232-91.136 0l0-168.768L570.368 651.776 570.368 857.408c-22.4 50.048-70.208 49.28-91.072 0l0-205.632L446.528 651.776 446.528 822.784c-19.648 41.856-69.056 50.88-91.136 0l0-171.008L322.624 651.776 322.624 783.808c-15.808 40.192-68.032 53.312-91.072 0l0-131.968L74.624 651.84l0-481.856 161.984 0c4.8-164.288 130.24-296.64 283.328-296.64 153.088 0 278.592 132.224 283.328 296.64l146.176 0L949.44 651.84 694.272 651.84 694.272 651.84 694.272 651.84zM919.104 195.904l-120.128 0L798.976 419.392c-15.744 81.792-68.032 108.544-91.008 0l0-223.552L100.288 195.84 100.288 623.488l818.816 0L919.104 195.904 919.104 195.904 919.104 195.904z"  horiz-adv-x="1024" />

    
    <glyph glyph-name="liucheng" unicode="&#58948;" d="M740.502914 843.990008l-14.494588 6.820983c-64.799334 28.136553-133.861782 42.631141-204.629475 42.631141C403.716903 893.442132 290.318068 852.516236 199.087427 778.338052l47.746878-55.420483C325.275604 786.011657 421.621982 820.11657 520.526228 820.11657c61.388843 0 120.219817-12.789342 176.492923-36.662781l14.494588-5.96836L691.050791 728.033306l133.861782 42.631141L762.671107 896 740.502914 843.990008zM503.473772-51.263947c-61.388843 0-120.219817 12.789342-176.492923 36.662781l-14.494588 5.96836 20.462948 48.5995-133.861782-42.631141 62.241465-125.335554 22.168193 52.009992 14.494588-6.820983c64.799334-28.136553 133.861782-42.631141 204.629475-42.631141 117.661948 0 231.060783 40.925895 321.438801 114.251457L776.313072 45.935054C698.724396-17.159034 602.378018-51.263947 503.473772-51.263947zM113.825146 570.298085l5.96836 14.494588 48.5995-20.462948-42.631141 133.861782L0.426311 635.950042l52.009992-22.168193-6.820983-14.494588c-77.588676-177.345545-49.452123-377.711907 72.472939-526.068276l55.420483 47.746878C70.341382 248.006661 47.320566 419.383847 113.825146 570.298085zM971.563697 156.77602l6.820983 14.494588c77.588676 177.345545 49.452123 377.711907-72.472939 526.068276l-55.420483-47.746878c103.167361-127.040799 126.188177-298.417985 59.683597-450.184846l-5.96836-14.494588-48.5995 20.462948 42.631141-133.861782 125.335554 62.241465L971.563697 156.77602zM307.370525 417.678601l0-67.357202 61.388843 0c3.410491-16.199833 10.231474-31.547044 19.610325-46.041632l-42.631141-42.631141L392.632806 213.901749l43.483764 43.483764c13.641965-8.526228 28.136553-13.641965 42.631141-17.052456L478.74771 179.796836l67.357202 0 0 61.388843c15.347211 3.410491 30.694421 10.231474 44.336386 18.757702l44.336386-44.336386 47.746878 47.746878-44.336386 44.336386c8.526228 13.641965 14.494588 28.989176 18.757702 44.336386L716.629475 352.026644l0 67.357202-61.388843 0c-3.410491 15.347211-9.378851 28.989176-17.052456 42.631141l43.483764 43.483764-47.746878 47.746878-42.631141-42.631141c-14.494588 9.378851-29.841799 15.347211-46.041632 19.610325L545.25229 589.055787l-67.357202 0 0-61.388843c-15.347211-3.410491-30.694421-10.231474-44.336386-18.757702L392.632806 551.540383 344.885928 503.793505l41.778518-41.778518c-8.526228-13.641965-14.494588-28.989176-18.757702-44.336386L307.370525 417.678601zM431.000833 385.278934c0 44.336386 35.810158 80.146545 80.146545 80.146545 44.336386 0 80.146545-35.810158 80.146545-80.146545 0-44.336386-35.810158-80.146545-80.146545-80.146545C467.663614 305.13239 431.853455 341.795171 431.000833 385.278934z"  horiz-adv-x="1024" />

    
    <glyph glyph-name="weixin" unicode="&#58995;" d="M962.3509908528646 305.89771347656244C943.0348762044272 305.89771347656244 923.5512631184895 325.26590595703124 923.5512631184895 345.0216178710938 923.5512631184895 364.50527138671873 943.0348762044272 384.12495673828124 962.3509908528646 384.12495673828124 991.6285559895834 384.12495673828124 1011.2449023763021 364.50527138671873 1011.2449023763021 345.0216178710938 1011.2464852864584 325.26590595703124 991.6285559895834 305.89771347656244 962.3509908528646 305.89771347656244M747.484503938802 305.89771347656244C728.034076595052 305.89771347656244 708.4145670247397 325.26590595703124 708.4145670247397 345.0216178710938 708.4145670247397 364.50527138671873 728.034076595052 384.12495673828124 747.484503938802 384.12495673828124 777.0307023763021 384.12495673828124 796.3815777669271 364.50527138671873 796.3815777669271 345.0216178710938 796.3815777669271 325.26590595703124 777.0307023763021 305.89771347656244 747.484503938802 305.89771347656244M1187.0114289388018 256.9718809570312C1187.0114289388018 413.2966611328125 1030.7300983723958 540.7202106445313 855.2069198567708 540.7202106445313 669.3462095052083 540.7202106445313 522.9631246419272 413.2966611328125 522.9631246419272 256.9718809570312 522.9631246419272 100.37978847656245 669.3477932942709-26.774866699218705 855.2069198567708-26.774866699218705 894.1077789388021-26.774866699218705 933.3436348958334-16.955535351562503 972.4135718098959-7.153601953124962L1079.559222200521-65.88295078124997 1050.1821059895835 31.83110830078124C1128.5906131184895 90.7123040039063 1187.0114289388018 168.7908626953124 1187.0114289388018 256.9718809570312M347.0622862630208 570.0073813476563C317.78788079427085 570.0073813476563 288.2401047200521 589.6444637695313 288.2401047200521 618.9506153320312 288.2401047200521 648.3738134765625 317.7863005208333 667.7420033203125 347.0622862630208 667.7420033203125 376.338271126302 667.7420033203125 395.8250447591146 648.3738134765625 395.8250447591146 618.9506153320312 395.8250447591146 589.6444637695313 376.338271126302 570.0073813476563 347.0622862630208 570.0073813476563M620.4507194661459 667.7404221679687C649.8625964192709 667.7404221679687 669.3477932942709 648.3722323242188 669.3477932942709 618.9490333007813 669.3477932942709 589.6444637695313 649.8625964192709 570.0058001953125 620.4507194661459 570.0058001953125 591.1715714192709 570.0058001953125 561.7944543294271 589.6444637695313 561.7944543294271 618.9490333007813 561.7944543294271 648.3738134765625 591.1715714192709 667.7404221679687 620.4507194661459 667.7404221679687M830.4865952473959 561.7286469726563C843.1485722005208 561.7286469726563 855.6778158528647 560.7970124999999 868.1043452473958 559.4130049804687 834.3043047200521 716.9509666992187 666.0341567708334 834 473.9649194661458 834 259.23274964192706 834 83.33349153645834 687.4961340820312 83.33349153645834 501.46186259765625 83.33349153645834 394.0787361328125 141.85385843098956 305.89771347656244 239.64484554036457 237.50245869140622L200.57490774739588 119.8808452148437 337.13243772786456 188.42478017578128C385.9963284505208 178.74305830078129 425.19900042317704 168.78927978515617 473.9633391927083 168.78927978515617 486.2207916341145 168.78927978515617 498.3755333333333 169.3950773437499 510.42913929036456 170.3441115234375 502.79845237630207 196.48523730468742 498.3755333333333 223.86643212890624 498.3755333333333 252.27416308593752 498.3771127278646 423.0970107421874 644.9308583333333 561.7286469726563 830.4865952473959 561.7286469726563"  horiz-adv-x="1257" />

    
    <glyph glyph-name="question" unicode="&#58883;" d="M510.84789333333333 861.7393674666666c-263.2511136 0-476.667488-213.4163744-476.667488-476.667488S247.59677973333334-91.59560959999999 510.84789333333333-91.59560959999999c263.2511136 0 476.667488 213.4163744 476.667488 476.667488S774.0990069333333 861.7393674666666 510.84789333333333 861.7393674666666zM510.84789333333333-35.51733760000002c-232.2834122666667 0-420.58921706666666 188.306896-420.58921706666666 420.58921706666666S278.5655733333333 805.6610965333333 510.84789333333333 805.6610965333333c232.28232106666667 0 420.5881258666667-188.306896 420.5881258666667-420.58921706666666S743.1302144-35.51733760000002 510.84789333333333-35.51733760000002zM482.80875840000004 132.71856746666674l56.078270933333336 0 0 56.078270933333336-56.078270933333336 0L482.80875840000004 132.71856746666674zM510.84789333333333 637.4251914666667c-85.95335466666667-2.217981866666667-140.19676906666666-64.81266666666667-140.19676906666666-168.23481386666666l56.079363199999996 0c0 60.870072533333335 18.2776128 112.15654186666667 84.11740693333333 112.15654186666667 66.1541536 0 84.11740693333333-40.00445013333333 84.11740693333333-84.11740693333333 0-46.166118399999995-19.249072-55.28473173333333-56.079363199999996-84.11740693333333-40.90932586666667-33.652856533333335-57.447045333333335-64.10099199999999-56.078270933333336-112.15763413333333l0-56.078270933333336 56.078270933333336 0 0 56.078270933333336c-2.7637450666666665 27.218307199999998 6.982496 34.61121706666667 34.282667733333334 55.449552000000004 53.203190400000004 43.26374826666667 77.87496639999999 80.06565973333333 77.87496639999999 140.82658026666667C651.0446634666666 583.7559189333333 598.6077248 637.4251914666667 510.84789333333333 637.4251914666667z"  horiz-adv-x="1024" />

    
    <glyph glyph-name="changshianniu" unicode="&#58959;" d="M958.396863 243.133715c-5.372358 20.527522-13.345959 36.588313-19.396769 46.823422 27.878954 44.674479 32.686447 94.212732 13.910824 143.69368-6.616698 17.530258-15.268752 32.17684-22.563901 42.865273 40.150442 62.770626 35.456536 116.436896 24.146956 150.762679-12.723789 38.906102-36.474726 61.58359-37.436634 62.488193L518.266727 832.16002S181.963285 746.712929 69.824275 718.211804c-6.89913-1.752924-6.390547-18.662035 0.678452-22.506596 101.054557-55.023174 404.333862-220.150002 404.333862-220.150002l416.604326 158.11411c4.6366-7.465019 8.256034-15.381315 10.970866-23.524786 10.574846-32.233122 5.03262-66.220191-16.399505-101.168144L479.530494 362.680439 100.475366 574.0648c-12.780071 7.181563-30.197766 2.261507-37.436634-10.631128-3.563152-6.390547-4.354168-13.798261-2.375094-20.809955 1.979074-7.125281 6.67298-12.94994 13.063527-16.455787l400.884296-223.599567 407.726122 146.80453c5.824659-7.91732 13.798261-20.527522 19.566638-35.966143 11.875468-31.950689 9.217942-62.826907-7.860015-91.780333L479.812927 180.080657l-379.224998 212.458833c-12.837376 7.238868-30.197766 2.205225-37.436634-10.574846-7.351432-13.176091-2.657526-29.915333 10.518565-37.323047l389.969712-218.453361 10.688434-5.937222 417.000345 142.506644c4.184299-6.955412 10.235109-18.830881 14.194281-34.66552 8.029884-31.838126 4.015454-64.863287-11.819187-98.227162l-411.797857-134.421503-381.430222 211.555254c-12.893658 7.068999-30.197766 2.092661-37.323047-10.688433-3.563152-6.390547-4.354168-13.798261-2.375094-20.809955a27.015284 27.015284 0 0 1 13.063527-16.455787l402.411069-223.203548 455.737602 148.783605 5.202489 9.556656c33.476439 61.808718 30.026874 115.078968 21.204951 148.95245zM824.033689 666.807041L478.908324 535.780869l-70.914096 38.623669 344.955496 117.285216 71.083965-24.882713z"  horiz-adv-x="1024" />

    
    <glyph glyph-name="jiahao" unicode="&#58901;" d="M512-96c-129 0-249 51-339 141s-141 210-141 339c0 129 51 249 141 339 90 90 210 141 339 141s249-51 339-141c90-90 141-210 141-339 0-129-51-249-141-339-90-90-210-141-339-141v0zM512 792c-111 0-213-42-291-120s-120-180-120-288 42-213 120-288c78-78 180-120 291-120 111 0 213 42 291 120 78 78 120 180 120 288 0 108-42 213-120 288-78 78-180 120-291 120v0zM512 792zM752 417h-207v207c0 18-15 33-33 33s-33-15-33-33v-207h-207c-18 0-33-15-33-33s15-33 33-33h207v-207c0-18 15-33 33-33s33 15 33 33v207h207c18 0 33 15 33 33s-15 33-33 33v0zM752 417z"  horiz-adv-x="1025" />

    
    <glyph glyph-name="jiufenchuli" unicode="&#58961;" d="M523.588 33.133h-328.379v514.257h211.101v210.377h304.924v-444.129c20.691 0 49.695 7.892 68.558 2.309v511.947h-446.559l-208.39-207.251v-657.635h445.656c-17.433 16.996-36.316 47.935-46.911 70.125zM640.866 500.641h-375.289v-23.375h375.289v23.375zM640.866 453.888h-375.289v-46.75h375.289v46.75zM640.866 383.763h-375.289v-23.377h375.289v23.377zM265.577 313.638v-23.376h234.556v46.749h-234.556v-23.372zM720.261 294.941c-98.657 0-178.635-79.542-178.635-177.655 0-98.109 79.978-177.651 178.635-177.651 98.636 0 178.617 79.542 178.617 177.651 0 98.113-79.981 177.655-178.617 177.655zM685.010 23.922v-0.011l-0.010-0.014h-0.015l-86.862-28.073 28.228 86.377v0.047h0.036l157.366 156.494 58.634-58.309-157.376-156.511zM619.106 16.697l58.647 18.935-39.59 39.385-19.057-58.32z"  horiz-adv-x="1279" />

    
    <glyph glyph-name="weixin1" unicode="&#58958;" d="M422 778.7727269531249v-306.8181817382812h-306.8181817382812v306.8181817382812h306.8181817382812M430.1818182617188 827.8636365234375H107c-22.5 0-40.90909130859375-18.40909130859375-40.90909130859375-40.90909130859375v-323.1818182617188c0-22.5 18.40909130859375-40.90909130859375 40.90909130859375-40.9090904296875H430.1818182617188c22.5 0 40.90909130859375 18.40909130859375 40.9090904296875 40.9090904296875V786.9545452148437c0 22.5-18.40909130859375 40.90909130859375-40.9090904296875 40.90909130859375zM908.8181817382813 778.7727269531249v-306.8181817382812h-306.8181817382812v306.8181817382812h306.8181817382812m8.181818261718751 49.0909095703125H593.8181817382813c-22.5 0-40.90909130859375-18.40909130859375-40.9090904296875-40.90909130859375v-323.1818182617188c0-22.5 18.40909130859375-40.90909130859375 40.9090904296875-40.9090904296875h323.1818182617188c22.5 0 40.90909130859375 18.40909130859375 40.90909130859375 40.9090904296875V786.9545452148437c0 22.5-18.40909130859375 40.90909130859375-40.90909130859375 40.90909130859375zM422 296.04545478515627v-306.8181817382812h-306.8181817382812v306.8181817382812h306.8181817382812m8.181818261718751 49.09090869140625H107c-22.5 0-40.90909130859375-18.40909130859375-40.90909130859375-40.9090904296875v-323.1818182617188c0-22.5 18.40909130859375-40.90909130859375 40.90909130859375-40.90909130859375H430.1818182617188c22.5 0 40.90909130859375 18.40909130859375 40.9090904296875 40.90909130859375V304.227273046875c0 22.5-18.40909130859375 40.90909130859375-40.9090904296875 40.9090904296875zM630.6363634765625-59.86363652343755h-32.72727216796875c-24.54545478515625 0-45 20.45454521484375-45 45V300.13636347656245c0 24.54545478515625 20.45454521484375 45 45 45h216.81818173828125v-139.09090869140627h59.318181738281254v139.09090869140627h40.9090904296875c24.54545478515625 0 45-20.45454521484375 45-45v-165.68181826171877H706.3181817382813v67.5h-73.63636347656251v-261.8181817382813zM262.45454521484373 631.5m-55.22727216796875 0a55.227273046875005 55.227273046875005 0 1 1 110.45454521484375 0 55.227273046875005 55.227273046875005 0 1 1-110.45454521484375 0ZM262.45454521484373 136.5m-55.22727216796875 0a55.227273046875005 55.227273046875005 0 1 1 110.45454521484375 0 55.227273046875005 55.227273046875005 0 1 1-110.45454521484375 0ZM761.5454547851562 631.5m-55.227273046875005 0a55.227273046875005 55.227273046875005 0 1 1 110.45454521484375 0 55.227273046875005 55.227273046875005 0 1 1-110.45454521484375 0ZM957.9090913085937 32.18181826171872v-47.04545478515625c0-24.54545478515625-20.45454521484375-45-45-45h-49.0909095703125v92.04545478515625h94.0909095703125zM702.2272730468751 32.18181826171872h92.04545390624999v-92.04545478515625h-92.04545390624999z"  horiz-adv-x="1024" />

    
    <glyph glyph-name="shuifei" unicode="&#59323;" d="M813.6013186844444 470.76443136L531.2050471822223 880.7313487644444c-9.066365155555555 13.161190968888889-28.436742826666666 13.161190968888889-37.54036565333333 0.03143566222222222L210.6233901511111 470.8692184177778c-163.74878435555553-237.1412878222222-14.486159359999998-573.0532169955555 272.5149001955555-592.5109168355555 9.529754737777779-0.643854791111111 19.125874915555553-0.9640368355555555 28.79301632-0.9640356977777778 9.676456391111111 0 19.271411484444446 0.3155239822222222 28.765073635555556 0.9640356977777778 286.93353016888886 19.423934008888885 436.33936384000003 355.11814143999993 272.9049383822222 592.4061297777777z m-156.59768376888888-123.8390784v-47.22497194666666h-115.33623296v-65.08991488h115.33623296v-47.82691214222223h-115.33856085333332v-94.75382385777777h-59.335968995555554v94.75382385777777H362.7536748088889v47.82691214222223h119.57659420444445V299.7003810133334H362.7536748088889v47.22497194666666h102.02018929777778L340.3503092622222 560.65266688h66.90505045333333c58.12393756444445-106.15692970666667 93.43700650666668-173.46482744888885 105.95317873777778-201.91903402666668h1.2131953777777775c4.238034488888889 11.700000995555554 15.84023438222222 35.31190499555556 34.813586773333334 70.83687594666667l71.14191985777778 131.08099413333332h63.27361536L558.0152695466667 346.92535296000005h98.98836536888889z"  horiz-adv-x="1024" />

    
    <glyph glyph-name="gongdanchuli" unicode="&#58990;" d="M847.0395284374999-82.98000843749992H176.95994656250002a84.4799475 84.4799475 0 0 0-84.7799465625 83.99994749999999 30.959980312499997 30.959980312499997 0 0 0 31.139980312499997 30.83998125c17.2199896875 0 20.039987812499998-6.539996250000001 20.039987812499998-23.5199859375a27.9599821875 27.9599821875 0 0 1 29.15998125-33.9599784375h658.7395884375001a33.9599784375 33.9599784375 0 0 1 41.159974687500004 33.059979375000005 23.999985 23.999985 0 0 0 28.1999821875 24.419985 31.019980312499996 31.019980312499996 0 0 0 31.139980312499997-30.83998125 84.35994749999999 84.35994749999999 0 0 0-84.7199465625-83.99994749999999m9.179994375000001-13.0199915625zM617.599671875 661.0795265625H219.61992031250003a28.7399821875 28.7399821875 0 1 0 0 57.419964375H617.599671875a28.7399821875 28.7399821875 0 1 0 0-57.419964375m0 0z m-96.53994-104.399934375H226.399915625a29.63998125 29.63998125 0 1 0 0 59.2799625h294.71981625a29.63998125 29.63998125 0 1 0 0-59.2799625m0 0z m-87.599945625-115.6199278125h-212.999866875a29.63998125 29.63998125 0 1 0 0 59.2199625h212.939866875a29.63998125 29.63998125 0 1 0 0-59.2199625m0 0zM372.19982468750004 313.67974406249994H232.0399128125a31.619980312499997 31.619980312499997 0 1 0 0 63.239960624999995H372.19982468750004a31.619980312499997 31.619980312499997 0 1 0 0-63.239960624999995m-20.579986875000003 13.4999915625zM123.07998031249997-39.60003562500003A30.959980312499997 30.959980312499997 0 0 0 92-8.820054374999927V779.9994525A84.4799475 84.4799475 0 0 0 176.77994656250002 863.9994h670.079581875a84.6599475 84.6599475 0 0 0 59.9999625-24.539985 82.6799484375 82.6799484375 0 0 0 24.839984062499997-59.2799625L931.9994750000001-0.0000599999999622014a30.959980312499997 30.959980312499997 0 0 0-30.959980312499997-31.019980312499996 34.3199784375 34.3199784375 0 0 0-28.139983125 36.5999765625l1.3799990625 51.599968125V779.3394525a25.7999840625 25.7999840625 0 0 1-27.2399821875 28.9799821875H176.95994656250002a30.599981250000003 30.599981250000003 0 0 1-29.15998125-34.6799784375L143.59996812499998 8.39993437499993c0-17.0399896875-2.999998125-47.99997-20.2799878125-47.99997m-10.6199934375-11.9999925z m336.59979000000004 129.77991937500002l77.99995125000001 24.299985a14.2199915625 14.2199915625 0 0 1 5.4599962500000006 3.239998125l232.7998546875 230.519855625a13.1399915625 13.1399915625 0 0 1 0 18.5999878125l-53.69996625 53.0999671875a13.4399915625 13.4399915625 0 0 1-18.779988749999998 0l-232.7998546875-230.39985562500001a12.7199925 12.7199925 0 0 1-3.2999971875-5.3999971875l-24.539985-77.39995125a13.1999915625 13.1999915625 0 0 1 16.619989687500002-16.5599896875z m307.7398078125 392.879754375l-20.879986875-20.579986875000003a13.1999915625 13.1999915625 0 0 1 0-18.659988749999997l53.69996625-53.15996625a13.4399915625 13.4399915625 0 0 1 18.7799878125 0l11.399993437500001 11.2799925a38.339975625 38.339975625 0 0 1 0 54.479966250000004l-26.879983125 26.519983125a25.6199840625 25.6199840625 0 0 1-35.9999775 0z"  horiz-adv-x="1024" />

    
    <glyph glyph-name="Notice" unicode="&#59028;" d="M873.7450666666666 577.7685333333334c-13.6576 26.619733333333333-31.5232 46.9344-51.488 62.34773333333333-11.556266666666666 8.7552-22.064 14.360533333333333-29.070933333333333 16.8128-8.408533333333333 3.1530666666666667-17.515733333333333-1.4005333333333332-20.664533333333335-9.458133333333334-2.8010666666666664-8.4064 1.3994666666666666-17.511466666666667 9.458133333333334-20.664533333333335 4.2016-1.4005333333333332 11.9072-5.605333333333333 21.3664-12.609066666666667 16.459733333333332-12.258133333333333 30.822400000000002-29.072 42.02986666666666-50.78933333333333 11.207466666666667-22.065066666666667 16.112000000000002-43.782399999999996 16.113066666666665-64.09813333333334 0-11.908266666666666-1.0517333333333334-20.664533333333335-2.4522666666666666-24.869333333333334-2.4522666666666666-8.4064 2.4522666666666666-17.514666666666667 10.856533333333335-19.965866666666667 8.7584-2.4522666666666666 17.511466666666667 2.4512 19.966933333333333 10.856533333333335 2.103466666666667 7.0048 3.8517333333333337 18.91306666666667 3.5018666666666665 34.3264-0.3509333333333333 25.2192-6.304 51.488-19.617066666666666 78.10773333333333zM482.5066666666667 780.2208c-95.2704-38.87893333333333 56.74026666666667-225.2192-411.90933333333334-416.11413333333337-40.6304-16.462933333333332-50.7872-82.3104-33.974399999999996-121.88906666666666 16.8128-39.23093333333334 72.15466666666666-78.81173333333332 112.78293333333333-62.3488 7.0048 3.1530666666666667 32.574933333333334 11.210666666666667 32.574933333333334 11.210666666666667 29.070933333333333-38.88106666666667 59.19253333333334-16.112000000000002 70.05226666666667-40.63466666666667 12.96-29.767466666666667 40.980266666666665-94.21973333333334 50.43733333333333-116.2816 9.458133333333334-21.7184 31.173333333333336-42.38186666666666 46.9344-36.07893333333333 15.762133333333333 5.956266666666666 68.99946666666666 26.269866666666665 89.31626666666666 33.97546666666667 20.315733333333334 7.704533333333333 25.2192 25.921066666666665 18.91306666666667 40.28053333333333-6.6528 15.412266666666666-34.3264 19.966933333333333-42.3808 38.178133333333335-7.704533333333333 17.863466666666667-33.62453333333333 76.00533333333333-40.980266666666665 94.22293333333333-10.1568 24.869333333333334 11.208533333333332 44.82986666666667 42.3808 48.33493333333333 213.31199999999998 22.413866666666667 253.23733333333334-109.63093333333333 326.0949333333333-80.21226666666666 56.74026666666667 23.11573333333333 45.18293333333334 185.99040000000002-23.818666666666665 346.7616-68.9984 161.12106666666665-180.38506666666666 283.3632-236.42666666666668 260.59413333333333zM694.7658666666666 259.0282666666667c-12.6112-5.2544-96.32106666666667 61.296-150.26133333333334 186.3392-53.59146666666666 124.69439999999999-46.586666666666666 239.22879999999998-34.327466666666666 244.13333333333333 12.609066666666667 4.903466666666667 94.56960000000001-74.95573333333333 148.16-200 53.59146666666666-125.04746666666666 49.034666666666666-225.56906666666666 36.427733333333336-230.47359999999998zM961.3141333333333 620.8501333333334c-22.420266666666663 43.4336-53.24373333333333 75.65653333333333-88.96640000000001 98.4256-21.3664 13.6576-40.28053333333333 21.3664-52.1888 24.519466666666666-8.7584 2.4512-17.515733333333333-2.8032-19.613866666666667-11.5584-2.4522666666666666-8.756266666666667 2.8010666666666664-17.514666666666667 11.556266666666666-19.613866666666667 2.103466666666667-0.3509333333333333 6.304-1.7525333333333333 11.909333333333333-4.2016 9.809066666666666-3.8528000000000002 20.315733333333334-9.458133333333334 31.1712-16.462933333333332 31.1712-19.966933333333333 57.79306666666666-47.9872 77.05813333333333-85.46453333333334 19.262933333333333-37.477333333333334 25.917866666666665-76.00533333333333 23.818666666666665-112.78293333333333-1.0538666666666667-12.96-2.8010666666666664-24.519466666666666-5.2576-35.02506666666667-1.3994666666666666-5.956266666666666-2.8010666666666664-10.1568-3.5018666666666665-11.909333333333333-3.1530666666666667-8.056533333333332 0.7018666666666666-17.511466666666667 9.104-20.664533333333335 1.8101333333333334-0.7807999999999999 3.9221333333333335-1.2351999999999999 6.137599999999999-1.2351999999999999 6.778666666666667 0 12.567466666666666 4.2496 14.843733333333333 10.232533333333333 4.588799999999999 11.668266666666666 9.494399999999999 30.932266666666663 10.893866666666666 56.502399999999994 2.8042666666666665 42.3808-5.255466666666666 86.16426666666666-26.968533333333333 129.24693333333332z"  horiz-adv-x="1024" />

    
    <glyph glyph-name="shouye" unicode="&#58881;" d="M978.221 376.167l-469.737 439.203-469.737-437.913c-9.189-8.567-9.702-22.975-1.114-32.155 8.579-9.173 23.004-9.692 32.187-1.105l438.629 408.894 438.649-410.139c4.401-4.112 9.987-6.144 15.563-6.144 6.070 0 12.143 2.411 16.623 7.209 8.596 9.173 8.123 23.568-1.065 32.149v0zM978.221 376.167zM834.88 367.146c-12.573 0-22.772-10.193-22.772-22.75v-348.839h-182.185v242.67h-242.91v-242.67h-182.178v348.839c0 12.557-10.189 22.75-22.771 22.75-12.59 0-22.777-10.193-22.777-22.75v-394.338h273.275v242.669h151.819v-242.669h273.268v394.338c0.001 12.557-10.201 22.75-22.768 22.75v0zM834.88 367.146zM675.472 693.232h136.635v-121.332c0-12.576 10.201-22.755 22.772-22.755 12.569 0 22.769 10.179 22.769 22.755v166.831h-182.177c-12.576 0-22.777-10.174-22.777-22.75-0.001-12.572 10.201-22.75 22.777-22.75v0zM675.472 693.232z"  horiz-adv-x="1024" />

    
    <glyph glyph-name="tubiao114" unicode="&#58882;" d="M512.002 739.624l89.336-180.99c17.595-35.779 57.494-64.715 96.941-70.515l199.881-29.008-144.641-141.029c-28.491-27.849-43.7-74.643-36.996-113.96l34.162-199.045-178.737 93.979c-21.853 11.473-44.666 13.923-59.945 13.923-15.278 0-38.092-2.451-59.88-13.923l-178.806-93.979 34.163 199.045c6.707 39.317-8.508 86.111-36.996 113.96l-144.639 141.029 199.879 29.008c39.445 5.8 79.346 34.737 96.941 70.515l89.338 180.99M512.002 871.439c-5.286 0-10.569-4.060-14.635-12.181l-133.939-271.489c-7.992-16.244-29.262-31.716-47.182-34.294l-299.593-43.572c-17.983-2.579-22.045-15.084-9.024-27.78l216.704-211.289c13.021-12.698 21.143-37.707 18.050-55.563l-51.179-298.366c-2.192-12.892 2.771-20.563 11.793-20.563 3.418 0 7.413 1.097 11.794 3.416l268.010 140.902c7.993 4.192 18.632 6.32 29.201 6.32 10.567 0 21.205-2.129 29.195-6.32l268.013-140.902c4.382-2.319 8.379-3.416 11.795-3.416 9.024 0 13.986 7.671 11.793 20.563l-51.18 298.366c-3.092 17.857 5.031 42.865 18.051 55.563l216.703 211.289c13.019 12.696 8.957 25.202-9.024 27.78l-299.595 43.572c-17.919 2.578-39.187 18.050-47.178 34.294l-133.944 271.489c-4.061 8.121-9.343 12.181-14.629 12.181v0z"  horiz-adv-x="1025" />

    
    <glyph glyph-name="falvfaguiX" unicode="&#59034;" d="M943.923 698.88H872.09v25.037l-24.423 11.776c-4.915 2.406-121.088 57.907-222.771 57.907-47.565 0-85.658-12.083-113.766-35.942-28.11 23.859-66.15 35.942-113.767 35.942-101.632 0-217.856-55.5-222.72-57.856l-24.422-11.776v-25.088H80.077c-15.975 0-28.877-15.872-28.877-35.482v-653.516c0-19.61 12.902-35.482 28.877-35.482h863.897c15.924 0 28.826 15.872 28.826 35.482V663.398c0 19.61-12.902 35.482-28.877 35.482z m-110.336-7.168v-518.656c-59.597 25.088-217.856 81.92-303.206 20.634V716.083c24.064 22.119 57.958 30.208 94.515 30.208 95.54 0 208.691-54.579 208.691-54.579z m-43.571-550.963H536.371c49.51 57.702 172.032 29.952 253.645 0zM397.363 746.29c36.557 0 70.451-8.14 94.515-30.208V193.69c-85.35 61.286-243.61 4.454-303.206-20.634V691.712s113.152 54.58 208.691 54.58z m88.525-605.542H232.192c81.562 29.952 204.186 57.753 253.696 0z m429.21-95.386H108.902V627.917h41.319v-534.528h721.817V627.917h43.008v-582.554z"  horiz-adv-x="1024" />

    
    <glyph glyph-name="duihao" unicode="&#58926;" d="M509.866667-110.933333c-273.066667 0-492.8 221.866667-492.8 492.8 0 273.066667 221.866667 492.8 492.8 492.8 273.066667 0 492.8-221.866667 492.8-492.8 0-270.933333-221.866667-492.8-492.8-492.8z m0 906.666666c-228.266667 0-411.733333-185.6-411.733334-411.733333 0-228.266667 185.6-411.733333 411.733334-411.733333 228.266667 0 411.733333 185.6 411.733333 411.733333 0 226.133333-185.6 411.733333-411.733333 411.733333zM755.2 522.666667c-17.066667 19.2-44.8 21.333333-64 4.266666l-273.066667-232.533333-87.466666 91.733333c-17.066667 19.2-44.8 19.2-64 2.133334-19.2-17.066667-19.2-46.933333-2.133334-64l117.333334-123.733334c8.533333-8.533333 21.333333-14.933333 32-14.933333s21.333333 4.266667 29.866666 10.666667l307.2 260.266666c19.2 17.066667 21.333333 46.933333 4.266667 66.133334z"  horiz-adv-x="1024" />

    
    <glyph glyph-name="jiaoxueziliao_xiazai" unicode="&#58880;" d="M960.512 640c0 52.736-43.008 96.256-96.256 96.256h-185.856c-1.024 0-1.536-0.512-2.048-0.512-3.584 0-6.656-0.512-10.24-2.048-0.512 0-1.024-0.512-1.024-1.024-3.072-1.536-6.144-3.072-8.704-5.632-16.384-15.872-25.088-48.128-34.304-88.064-1.536-5.632-2.56-10.24-3.584-14.336-1.536-5.632-4.096-16.384-27.136-16.384H160.256c-52.736 0-96.256-43.008-95.744-98.304l31.744-413.696c0-52.736 43.008-96.256 96.256-96.256h640c52.736 0 96.256 43.008 95.744 93.696m-64 2.048c0-17.408-14.336-32.256-32.256-32.256h-640c-17.408 0-32.256 14.336-32.256 34.304L128 512c0 17.408 14.336 32.256 32.256 32.256h431.616c46.08 0 79.36 24.576 89.088 64.512 1.024 4.096 2.56 9.728 4.096 15.872 2.56 10.24 8.192 33.792 12.8 47.616H865.28c17.408 0 32.256-14.336 32.256-32.256v-2.56l-33.28-541.696zM128 671.744h416.256c17.92 0 32.256 14.336 32.256 32.256s-14.336 32.256-32.256 32.256H128c-17.92 0-32.256-14.336-32.256-32.256s14.336-32.256 32.256-32.256zM512.512 207.36h-2.048c-7.168 0-14.848 3.072-20.48 8.704l-82.944 83.456c-5.632 5.632-8.704 13.312-8.704 20.992 0 7.68 3.072 15.36 8.704 20.992 5.632 5.632 13.312 8.704 20.992 8.704 7.68 0 14.848-3.072 20.992-8.704l32.768-33.28V421.376c0 16.384 13.312 29.696 29.696 29.696 16.384 0 29.696-13.312 29.696-29.696v-113.152l24.064 24.064c11.264 11.264 29.696 11.264 41.984 0.512l0.512-0.512c5.632-5.632 8.704-13.312 8.704-20.992 0-8.704-3.072-15.872-9.216-20.992l-73.216-74.24c-2.048-2.048-5.632-5.12-10.24-6.656-3.584-1.024-7.168-2.048-11.264-2.048zM613.888 132.096H411.136c-17.92 0-32.256 14.336-32.256 32.256s14.336 32.256 32.256 32.256h202.752c17.92 0 32.256-14.336 32.256-32.256s-14.336-32.256-32.256-32.256z"  horiz-adv-x="1024" />

    
    <glyph glyph-name="zhengcefagui" unicode="&#58896;" d="M720.045333 815.2a85.82 85.82 0 0 1-61.098666 25.316H140.456c-47.725333 0-86.414667-38.689333-86.414667-86.414667v-748.930666c0.012-47.72 38.694667-86.402667 86.414667-86.414667H658.946667c47.72 0.012 86.402667 38.694667 86.414666 86.414667V754.101333A85.790667 85.790667 0 0 1 720.045333 815.2z m-32.289333-810.028c-0.008-15.906667-12.901333-28.8-28.809333-28.805333H140.456c-15.906667 0.005333-28.8 12.897333-28.805333 28.804V754.101333c0.005333 15.906667 12.898667 28.8 28.805333 28.805334H658.946667c15.901333-0.02 28.786667-12.904 28.809333-28.805334v-748.929333z m262.730667 691.204a85.818667 85.818667 0 0 1-61.101334 25.316H712.956v-57.609333H889.386667c15.9-0.02 28.785333-12.904 28.808-28.804v-630.108c-0.005333-15.906667-12.9-28.801333-28.808-28.805334H511.324v-57.609333H889.386667c47.721333 0.010667 86.404 38.693333 86.414666 86.414667V635.284a85.809333 85.809333 0 0 1-25.314666 61.092z m-320.345334-57.492H169.265333v57.608h460.876v-57.608z m0-144.025333H169.265333v57.609333h460.876v-57.610667 0.001334z m0-144.025334H169.265333v57.608h460.876v-57.609333 0.001333z m0-144.024H169.265333v57.609334h460.876v-57.609334z m0-144.025333H169.265333v57.609333h460.876v-57.613333 0.004zM169.265333 494.856V696.492h57.613334v-201.636h-57.613334z m403.272 0V696.492h57.608v-201.636H572.533333h0.004z"  horiz-adv-x="1024" />

    
    <glyph glyph-name="baoxiu" unicode="&#58929;" d="M441.784 245.402l31.988-31.986-129.747-129.975c-0.584-9-3.699-17.895-9.707-25.4l-33.713-41.961c-3.12-3.866-6.852-7.209-11.046-9.839l-90.674-50.05c-17.894-11.333-41.282-8.737-56.249 6.27l-17.963 17.994c-14.938 14.972-17.505 38.257-6.235 56.121l49.919 90.871a44.912 44.912 0 0 0 9.841 11.042l41.861 33.777c7.471 6.042 16.336 9.157 25.331 9.775l129.752 129.974 31.986-31.992-118.7-122.892 0.093-0.064-28.353-28.224-7.08 7.046-36.991-29.847-62.292-98.535 15.911-15.912 98.344 62.356 29.816 37.119-7.081 7.081 150.989 147.251zM949.929 601.26L729.273 380.217a45.222 45.222 0 0 0-37.025-12.989c-3.603 0.391-7.144 0.228-10.619-0.326l-22.21 25.983c13.671 7.664 21.399 29.553 41.273 37.252l193.761 194.117L785.95 732.989l-193.797-194.12c1.693-15.229-20.067-38.029-28.833-53.649l-34.915 34.914c0.583 3.541 0.71 7.175 0.322 10.843a45.262 45.262 0 0 0 12.929 36.962l220.649 221.044c17.699 17.696 46.38 17.696 64.047 0l123.576-123.809c17.635-17.667 17.635-46.247 0.001-63.914z m-87.723-589.175c-49.919-49.916-122.503-48.066-168.72-18.413l-251.702 251.7-34.686 34.651-31.957 31.992-69.666 69.665c-66.321-9.093-134.196 12.696-183.044 61.544-54.173 54.173-75.184 131.824-57.452 204.866 8.318 34.296 50.99 46.28 75.931 21.306l74.569-74.57 46.054 12.342 12.342 46.055-76.844 76.874c-24.421 24.421-13.574 66.094 19.684 75.508 75.089 21.208 156.507 0.812 212.727-55.404 50.988-50.988 72.394-122.602 60.246-191.327l38.712-38.711 35.66-30.918 82.622-87.396 34.946-34.914 192.563-192.593c27.799-56.349 37.933-112.37-11.985-162.257z m-47.093 148.716L636.944 338.937l-32.157 32.156-76.839 76.874-32.188 32.156-52.518 52.516c17.282 54.693 4.258 116.915-39.132 160.275-42.122 42.157-102.075 77.037-155.63 61.9l88.078-109.483-23.903-89.147-89.186-23.901-112.272 77.749c-12.633-52.061 27.7-101.038 68.329-141.697 41.605-41.604 100.555-55.311 153.556-41.085a85.663 85.663 0 0 1 2.991-3.149l76.968-76.972 29.555-29.555 32.025-32.021 29.555-29.559 203.05-203.08c29.782-29.781 78.077-29.781 107.855 0 29.784 29.811 29.784 78.104 0.032 107.887z m-45.275-62.358l-41.504-11.141-30.4 30.399 11.141 41.505 41.505 11.11 30.368-30.368-11.11-41.505z m0 0"  horiz-adv-x="1024" />

    


  </font>
</defs>
</svg>
